<svg version="1.1" id="Layer_1" xmlns="http://www.w3.org/2000/svg" xmlns:xlink="http://www.w3.org/1999/xlink" x="0px" y="0px"
	 width="100%" viewBox="0 0 1080 1080" enable-background="new 0 0 1080 1080" xml:space="preserve">
<path fill="#FFFFFF" opacity="1.000000" stroke="none" 
	d="
M598.000000,1081.000000 
	C398.689606,1081.000000 199.879227,1081.000000 1.034416,1081.000000 
	C1.034416,721.064514 1.034416,361.128967 1.034416,1.096730 
	C360.893951,1.096730 720.787903,1.096730 1080.840942,1.096730 
	C1080.840942,360.999939 1080.840942,720.999939 1080.840942,1081.000000 
	C920.128479,1081.000000 759.314270,1081.000000 598.000000,1081.000000 
M221.839615,325.216156 
	C183.237701,328.793182 158.961838,355.394745 150.846481,388.372681 
	C147.548416,401.774811 146.937286,415.325287 147.140991,429.002808 
	C147.227005,434.778137 147.155334,440.555786 147.155334,446.926331 
	C110.965965,446.926331 75.411484,446.926331 39.309967,446.926331 
	C39.309967,449.322174 39.309971,451.115509 39.309971,452.908875 
	C39.309975,530.062927 39.285545,607.217041 39.359028,684.371033 
	C39.364559,690.179565 39.461777,696.103394 40.546932,701.776489 
	C46.827026,734.608643 73.954681,756.951538 107.481323,756.980103 
	C186.635010,757.047607 265.788849,757.021301 344.942535,756.958557 
	C350.248810,756.954346 355.587891,756.596741 360.855103,755.945740 
	C390.804230,752.243958 416.835510,723.108032 416.982147,693.004517 
	C417.128265,663.010071 417.035095,633.014526 417.046692,603.019470 
	C417.047363,601.243652 417.046753,599.467834 417.046753,597.142029 
	C422.447754,597.142029 427.240509,597.203125 432.031311,597.131592 
	C453.581421,596.809631 466.581482,585.529724 468.430206,564.194275 
	C469.543915,551.341248 465.556824,539.044617 451.679565,533.005554 
	C445.298828,530.228821 438.003906,529.321655 431.018768,528.248169 
	C426.547455,527.561035 421.884674,528.119385 416.905090,528.119385 
	C416.905090,500.631866 416.905090,474.034180 416.905090,446.877075 
	C414.540009,446.877075 412.584686,446.877106 410.629364,446.877106 
	C378.801208,446.877106 346.972412,446.775208 315.145630,446.985413 
	C310.300781,447.017426 309.132446,445.594452 309.020477,440.845367 
	C308.664154,425.730408 309.115387,410.396454 306.685577,395.568115 
	C299.680145,352.816528 265.057098,324.387268 221.839615,325.216156 
M855.978516,511.435272 
	C855.158142,510.733307 854.334229,509.417145 853.517883,509.421783 
	C842.037537,509.486908 830.547241,509.501038 819.084351,510.050201 
	C814.677490,510.261353 811.936462,513.565430 811.123474,517.882690 
	C810.322693,522.135376 811.503967,526.170898 815.337158,528.320312 
	C817.959656,529.790833 821.271240,530.320435 824.339844,530.633362 
	C828.068542,531.013550 831.865479,530.723633 836.477844,530.723633 
	C821.936829,566.820435 807.742920,602.055420 793.264709,637.996277 
	C802.085327,637.996277 809.897766,638.141113 817.694092,637.851501 
	C818.971130,637.804016 820.740906,636.081482 821.315369,634.723816 
	C823.451904,629.673950 824.964722,624.354675 827.203979,619.357117 
	C827.868652,617.873779 830.128479,616.205444 831.693604,616.168823 
	C843.187256,615.899719 854.691528,616.120850 866.189087,615.954834 
	C869.052917,615.913452 870.244812,616.958862 871.127625,619.563232 
	C874.649353,629.952087 878.590515,640.202026 881.954041,650.639465 
	C883.227844,654.592102 884.958435,656.019287 889.267761,655.997986 
	C927.600098,655.808472 965.933655,655.890808 1004.266907,655.876526 
	C1005.926575,655.875916 1007.627075,655.917236 1009.239014,655.593079 
	C1017.647705,653.902161 1021.193359,644.451233 1015.216125,638.396423 
	C1013.015259,636.166992 1008.742126,635.048706 1005.402039,635.023315 
	C973.237305,634.778931 941.069641,634.813721 908.903748,634.960571 
	C905.199951,634.977539 903.314270,633.986023 901.936096,630.397461 
	C886.790344,590.960510 871.470764,551.590393 855.978516,511.435272 
M960.500000,545.278137 
	C939.844604,545.278442 919.189026,545.232788 898.533875,545.301758 
	C890.372437,545.328979 888.629150,547.829895 891.204651,555.427795 
	C897.182678,573.063293 903.180969,590.691833 909.189331,608.316956 
	C911.242065,614.338745 913.408997,615.877502 919.848572,615.880432 
	C945.334717,615.892151 970.820801,615.892212 996.306946,615.880920 
	C1003.463074,615.877747 1005.646423,614.186523 1007.658386,607.231934 
	C1012.785095,589.510681 1017.907166,571.788147 1023.045044,554.070190 
	C1025.068848,547.091064 1023.764587,545.293274 1016.470032,545.285034 
	C998.146667,545.264221 979.823364,545.278442 960.500000,545.278137 
M624.513428,638.008301 
	C650.680725,629.876099 665.351135,607.872009 664.092896,578.643433 
	C662.638428,544.857056 630.132385,520.032593 597.164185,527.530701 
	C566.214478,534.569885 547.737122,565.929626 555.569702,598.124939 
	C563.035889,628.814209 592.629150,646.203308 624.513428,638.008301 
M675.469116,625.481079 
	C675.469116,629.587891 675.469116,633.694763 675.469116,637.862732 
	C684.052124,637.862732 692.022339,637.862732 700.585388,637.862732 
	C700.585388,624.321228 700.585388,610.911743 700.585388,597.023499 
	C707.652161,597.023499 714.149353,597.356506 720.601685,596.960205 
	C738.841431,595.839844 751.999817,582.719055 752.941528,565.086914 
	C753.981628,545.610596 744.264771,531.422241 725.737671,529.520203 
	C709.318115,527.834534 692.588745,529.166870 675.469177,529.166870 
	C675.469177,560.587341 675.469177,592.536804 675.469116,625.481079 
M537.479980,528.185852 
	C516.022400,528.185852 494.564789,528.185852 472.857056,528.185852 
	C472.857056,535.652771 472.857056,542.741211 472.857056,550.259949 
	C481.513855,550.259949 489.949280,550.259949 498.874451,550.259949 
	C498.874451,579.734192 498.874451,608.782593 498.874451,637.803467 
	C507.332947,637.803467 515.283691,637.803467 523.781250,637.803467 
	C523.781250,608.563782 523.781250,579.522156 523.781250,549.978821 
	C532.718140,549.978821 541.116821,549.978821 549.555420,549.978821 
	C549.555420,542.544067 549.555420,535.621460 549.555420,528.185852 
	C545.709900,528.185852 542.089539,528.185852 537.479980,528.185852 
M763.995239,564.500000 
	C763.995239,588.920044 763.995239,613.340027 763.995239,637.723633 
	C772.617798,637.723633 780.687073,637.723633 788.613403,637.723633 
	C788.613403,601.085632 788.613403,564.725342 788.613403,528.422974 
	C780.295532,528.422974 772.360657,528.422974 763.995239,528.422974 
	C763.995239,540.263977 763.995239,551.882019 763.995239,564.500000 
M976.191040,698.501282 
	C983.176147,702.193848 990.022644,702.043213 996.321777,697.168335 
	C1002.319458,692.526733 1005.036194,686.273560 1003.488464,678.683716 
	C1001.790710,670.358521 994.863953,664.436035 986.755676,663.973328 
	C978.184326,663.484253 970.789001,668.160950 967.924377,675.882080 
	C964.836609,684.204651 967.640930,692.403931 976.191040,698.501282 
M894.479370,696.077515 
	C900.753662,701.208740 907.603210,702.444153 914.901367,698.623047 
	C921.868958,694.975037 925.363831,689.088379 925.026001,681.132996 
	C924.703613,673.539917 920.688782,668.310303 914.045410,665.156494 
	C906.454468,661.552734 896.616455,664.304199 891.657837,671.092896 
	C886.083496,678.724548 886.913696,687.724487 894.479370,696.077515 
z"/>
<path fill="#FFBD5A" opacity="1.000000" stroke="none" 
	d="
M222.301865,325.204529 
	C265.057098,324.387268 299.680145,352.816528 306.685577,395.568115 
	C309.115387,410.396454 308.664154,425.730408 309.020477,440.845367 
	C309.132446,445.594452 310.300781,447.017426 315.145630,446.985413 
	C346.972412,446.775208 378.801208,446.877106 410.629364,446.877106 
	C412.584686,446.877106 414.540009,446.877075 416.905090,446.877075 
	C416.905090,474.034180 416.905090,500.631866 416.905090,528.119385 
	C421.884674,528.119385 426.547455,527.561035 431.018768,528.248169 
	C438.003906,529.321655 445.298828,530.228821 451.679565,533.005554 
	C465.556824,539.044617 469.543915,551.341248 468.430206,564.194275 
	C466.581482,585.529724 453.581421,596.809631 432.031311,597.131592 
	C427.240509,597.203125 422.447754,597.142029 417.046753,597.142029 
	C417.046753,599.467834 417.047363,601.243652 417.046692,603.019470 
	C417.035095,633.014526 417.128265,663.010071 416.982147,693.004517 
	C416.835510,723.108032 390.804230,752.243958 360.855103,755.945740 
	C355.587891,756.596741 350.248810,756.954346 344.942535,756.958557 
	C265.788849,757.021301 186.635010,757.047607 107.481323,756.980103 
	C73.954681,756.951538 46.827026,734.608643 40.546932,701.776489 
	C39.461777,696.103394 39.364559,690.179565 39.359028,684.371033 
	C39.285545,607.217041 39.309975,530.062927 39.309971,452.908875 
	C39.309971,451.115509 39.309967,449.322174 39.309967,446.926331 
	C75.411484,446.926331 110.965965,446.926331 147.155334,446.926331 
	C147.155334,440.555786 147.227005,434.778137 147.140991,429.002808 
	C146.937286,415.325287 147.548416,401.774811 150.846481,388.372681 
	C158.961838,355.394745 183.237701,328.793182 222.301865,325.204529 
M66.157639,590.500000 
	C66.158058,622.826355 66.112396,655.152771 66.173775,687.479065 
	C66.221222,712.470581 83.696335,729.978455 108.608772,729.988281 
	C188.424683,730.019714 268.241608,729.782837 348.055969,730.138794 
	C370.526062,730.239014 390.494568,712.154236 390.325745,687.859619 
	C389.842957,618.378113 390.158844,548.891052 390.146515,479.406189 
	C390.146210,477.655975 389.981628,475.905792 389.899872,474.279053 
	C362.708282,474.279053 336.145538,474.279053 308.936401,474.279053 
	C308.936401,478.717133 308.936401,482.768799 308.936401,486.726501 
	C299.712921,486.726501 291.145844,486.726501 281.941315,486.726501 
	C281.941315,482.290680 281.941315,478.238708 281.941315,474.267059 
	C245.727158,474.267059 210.165771,474.267059 173.957672,474.267059 
	C173.957672,478.692047 173.957672,482.746124 173.957672,486.738525 
	C164.735413,486.738525 156.168045,486.738525 146.962616,486.738525 
	C146.962616,482.317413 146.962616,478.262177 146.962616,474.257812 
	C119.747490,474.257812 93.184143,474.257812 66.157883,474.257812 
	C66.157883,512.919922 66.157883,551.209961 66.157639,590.500000 
M282.157715,438.444916 
	C282.127045,430.783600 282.389069,423.107452 282.001251,415.464264 
	C281.316071,401.959625 278.604858,389.036591 271.130890,377.324432 
	C258.972229,358.270966 237.432831,349.062103 216.021942,353.568817 
	C196.988052,357.575195 185.628769,370.354797 179.075943,387.987274 
	C174.124939,401.309479 173.700363,415.190277 174.128296,429.182312 
	C174.304413,434.941071 174.157471,440.709686 174.157471,446.573883 
	C210.461761,446.573883 246.021347,446.573883 282.157959,446.573883 
	C282.157959,443.990784 282.157959,441.706909 282.157715,438.444916 
M425.135101,548.188538 
	C422.556000,548.188538 419.976898,548.188538 417.321838,548.188538 
	C417.321838,558.113525 417.321838,567.335327 417.321838,577.652954 
	C422.867859,576.974121 428.193420,576.940918 433.145050,575.563416 
	C439.682800,573.744507 442.179749,569.335266 442.053467,562.336853 
	C441.933868,555.705811 439.249969,552.002747 432.766663,549.850220 
	C430.579681,549.124146 428.271698,548.762390 425.135101,548.188538 
z"/>
<path fill="#FFBE5A" opacity="1.000000" stroke="none" 
	d="
M856.088501,511.818726 
	C871.470764,551.590393 886.790344,590.960510 901.936096,630.397461 
	C903.314270,633.986023 905.199951,634.977539 908.903748,634.960571 
	C941.069641,634.813721 973.237305,634.778931 1005.402039,635.023315 
	C1008.742126,635.048706 1013.015259,636.166992 1015.216125,638.396423 
	C1021.193359,644.451233 1017.647705,653.902161 1009.239014,655.593079 
	C1007.627075,655.917236 1005.926575,655.875916 1004.266907,655.876526 
	C965.933655,655.890808 927.600098,655.808472 889.267761,655.997986 
	C884.958435,656.019287 883.227844,654.592102 881.954041,650.639465 
	C878.590515,640.202026 874.649353,629.952087 871.127625,619.563232 
	C870.244812,616.958862 869.052917,615.913452 866.189087,615.954834 
	C854.691528,616.120850 843.187256,615.899719 831.693604,616.168823 
	C830.128479,616.205444 827.868652,617.873779 827.203979,619.357117 
	C824.964722,624.354675 823.451904,629.673950 821.315369,634.723816 
	C820.740906,636.081482 818.971130,637.804016 817.694092,637.851501 
	C809.897766,638.141113 802.085327,637.996277 793.264709,637.996277 
	C807.742920,602.055420 821.936829,566.820435 836.477844,530.723633 
	C831.865479,530.723633 828.068542,531.013550 824.339844,530.633362 
	C821.271240,530.320435 817.959656,529.790833 815.337158,528.320312 
	C811.503967,526.170898 810.322693,522.135376 811.123474,517.882690 
	C811.936462,513.565430 814.677490,510.261353 819.084351,510.050201 
	C830.547241,509.501038 842.037537,509.486908 853.517883,509.421783 
	C854.334229,509.417145 855.158142,510.733307 856.088501,511.818726 
M840.285156,584.783875 
	C839.230225,587.702637 838.175232,590.621399 837.072571,593.672180 
	C845.290833,593.672180 853.004761,593.672180 861.323730,593.672180 
	C857.301392,583.188416 853.481995,573.233398 849.156799,561.960266 
	C845.959412,570.243225 843.287964,577.163635 840.285156,584.783875 
z"/>
<path fill="#FFBD5A" opacity="1.000000" stroke="none" 
	d="
M961.000000,545.278381 
	C979.823364,545.278442 998.146667,545.264221 1016.470032,545.285034 
	C1023.764587,545.293274 1025.068848,547.091064 1023.045044,554.070190 
	C1017.907166,571.788147 1012.785095,589.510681 1007.658386,607.231934 
	C1005.646423,614.186523 1003.463074,615.877747 996.306946,615.880920 
	C970.820801,615.892212 945.334717,615.892151 919.848572,615.880432 
	C913.408997,615.877502 911.242065,614.338745 909.189331,608.316956 
	C903.180969,590.691833 897.182678,573.063293 891.204651,555.427795 
	C888.629150,547.829895 890.372437,545.328979 898.533875,545.301758 
	C919.189026,545.232788 939.844604,545.278442 961.000000,545.278381 
z"/>
<path fill="#020202" opacity="1.000000" stroke="none" 
	d="
M624.111572,638.086304 
	C592.629150,646.203308 563.035889,628.814209 555.569702,598.124939 
	C547.737122,565.929626 566.214478,534.569885 597.164185,527.530701 
	C630.132385,520.032593 662.638428,544.857056 664.092896,578.643433 
	C665.351135,607.872009 650.680725,629.876099 624.111572,638.086304 
M601.811707,614.978760 
	C617.209106,617.669312 627.703064,613.110291 633.495728,600.676453 
	C638.839783,589.205444 638.790771,577.426453 633.645691,565.904663 
	C629.069153,555.655823 620.838501,550.436829 609.604980,550.327698 
	C598.238525,550.217224 589.863159,555.185242 584.767517,565.505005 
	C580.534607,574.077515 580.077576,583.038452 581.726562,592.259705 
	C583.745422,603.548645 589.946533,611.262939 601.811707,614.978760 
z"/>
<path fill="#040404" opacity="1.000000" stroke="none" 
	d="
M675.469116,624.983643 
	C675.469177,592.536804 675.469177,560.587341 675.469177,529.166870 
	C692.588745,529.166870 709.318115,527.834534 725.737671,529.520203 
	C744.264771,531.422241 753.981628,545.610596 752.941528,565.086914 
	C751.999817,582.719055 738.841431,595.839844 720.601685,596.960205 
	C714.149353,597.356506 707.652161,597.023499 700.585388,597.023499 
	C700.585388,610.911743 700.585388,624.321228 700.585388,637.862732 
	C692.022339,637.862732 684.052124,637.862732 675.469116,637.862732 
	C675.469116,633.694763 675.469116,629.587891 675.469116,624.983643 
M722.496765,573.062622 
	C730.618958,564.041382 727.092590,551.833374 715.348755,549.203613 
	C710.722046,548.167603 705.845398,548.248108 700.816895,547.796326 
	C700.816895,557.977356 700.816895,567.494019 700.816895,577.167236 
	C708.362366,577.395142 715.528381,577.806152 722.496765,573.062622 
z"/>
<path fill="#040404" opacity="1.000000" stroke="none" 
	d="
M537.974609,528.185852 
	C542.089539,528.185852 545.709900,528.185852 549.555420,528.185852 
	C549.555420,535.621460 549.555420,542.544067 549.555420,549.978821 
	C541.116821,549.978821 532.718140,549.978821 523.781250,549.978821 
	C523.781250,579.522156 523.781250,608.563782 523.781250,637.803467 
	C515.283691,637.803467 507.332947,637.803467 498.874451,637.803467 
	C498.874451,608.782593 498.874451,579.734192 498.874451,550.259949 
	C489.949280,550.259949 481.513855,550.259949 472.857056,550.259949 
	C472.857056,542.741211 472.857056,535.652771 472.857056,528.185852 
	C494.564789,528.185852 516.022400,528.185852 537.974609,528.185852 
z"/>
<path fill="#010101" opacity="1.000000" stroke="none" 
	d="
M763.995239,564.000000 
	C763.995239,551.882019 763.995239,540.263977 763.995239,528.422974 
	C772.360657,528.422974 780.295532,528.422974 788.613403,528.422974 
	C788.613403,564.725342 788.613403,601.085632 788.613403,637.723633 
	C780.687073,637.723633 772.617798,637.723633 763.995239,637.723633 
	C763.995239,613.340027 763.995239,588.920044 763.995239,564.000000 
z"/>
<path fill="#FFBE5A" opacity="1.000000" stroke="none" 
	d="
M975.863098,698.317810 
	C967.640930,692.403931 964.836609,684.204651 967.924377,675.882080 
	C970.789001,668.160950 978.184326,663.484253 986.755676,663.973328 
	C994.863953,664.436035 1001.790710,670.358521 1003.488464,678.683716 
	C1005.036194,686.273560 1002.319458,692.526733 996.321777,697.168335 
	C990.022644,702.043213 983.176147,702.193848 975.863098,698.317810 
z"/>
<path fill="#FFBE5A" opacity="1.000000" stroke="none" 
	d="
M894.199463,695.844360 
	C886.913696,687.724487 886.083496,678.724548 891.657837,671.092896 
	C896.616455,664.304199 906.454468,661.552734 914.045410,665.156494 
	C920.688782,668.310303 924.703613,673.539917 925.026001,681.132996 
	C925.363831,689.088379 921.868958,694.975037 914.901367,698.623047 
	C907.603210,702.444153 900.753662,701.208740 894.199463,695.844360 
z"/>
<path fill="#FEFEFE" opacity="1.000000" stroke="none" 
	d="
M66.157761,590.000000 
	C66.157883,551.209961 66.157883,512.919922 66.157883,474.257812 
	C93.184143,474.257812 119.747490,474.257812 146.962616,474.257812 
	C146.962616,478.262177 146.962616,482.317413 146.962616,486.738525 
	C156.168045,486.738525 164.735413,486.738525 173.957672,486.738525 
	C173.957672,482.746124 173.957672,478.692047 173.957672,474.267059 
	C210.165771,474.267059 245.727158,474.267059 281.941315,474.267059 
	C281.941315,478.238708 281.941315,482.290680 281.941315,486.726501 
	C291.145844,486.726501 299.712921,486.726501 308.936401,486.726501 
	C308.936401,482.768799 308.936401,478.717133 308.936401,474.279053 
	C336.145538,474.279053 362.708282,474.279053 389.899872,474.279053 
	C389.981628,475.905792 390.146210,477.655975 390.146515,479.406189 
	C390.158844,548.891052 389.842957,618.378113 390.325745,687.859619 
	C390.494568,712.154236 370.526062,730.239014 348.055969,730.138794 
	C268.241608,729.782837 188.424683,730.019714 108.608772,729.988281 
	C83.696335,729.978455 66.221222,712.470581 66.173775,687.479065 
	C66.112396,655.152771 66.158058,622.826355 66.157761,590.000000 
M355.641754,535.829468 
	C340.901855,525.811401 324.883118,523.690674 308.035187,528.839844 
	C281.975891,536.804321 266.580841,561.906494 270.020782,591.475037 
	C272.560272,613.303345 284.246765,629.285950 305.023529,636.592407 
	C326.144257,644.019714 346.054443,640.610962 362.859070,624.688049 
	C386.100433,602.666199 387.141235,558.585388 355.641754,535.829468 
M226.459671,572.017517 
	C217.032333,572.017517 207.605011,572.017517 197.857178,572.017517 
	C197.857178,557.145691 197.857178,542.878479 197.857178,528.462219 
	C189.459442,528.462219 181.396500,528.462219 173.331085,528.462219 
	C173.331085,565.115662 173.331085,601.498718 173.331085,637.659119 
	C181.746017,637.659119 189.821136,637.659119 198.278503,637.659119 
	C198.278503,622.906555 198.278503,608.495422 198.278503,594.223816 
	C210.124969,594.223816 221.572586,594.223816 233.443237,594.223816 
	C233.443237,608.876099 233.443237,623.291138 233.443237,637.717773 
	C241.964127,637.717773 250.053711,637.717773 258.031616,637.717773 
	C258.031616,601.165222 258.031616,564.897949 258.031616,528.551392 
	C249.714264,528.551392 241.670532,528.551392 233.241333,528.551392 
	C233.241333,543.156372 233.241333,557.407166 233.241333,571.376831 
	C232.711014,571.746826 232.576492,571.921692 232.437286,571.925476 
	C230.774643,571.970947 229.111282,571.990906 226.459671,572.017517 
M116.201721,551.578613 
	C127.770103,545.367065 137.591339,551.639221 148.029831,556.191040 
	C151.312668,549.708557 154.583420,543.249939 157.874985,536.750244 
	C150.855911,531.233215 142.876831,528.898499 134.717072,527.286499 
	C120.687393,524.514771 107.871651,526.937805 97.315514,537.306763 
	C84.943741,549.459167 84.879059,568.151855 97.563683,579.930908 
	C101.508812,583.594360 106.468895,586.251282 111.197464,588.962463 
	C116.948570,592.259888 123.037926,594.965881 128.803085,598.240784 
	C132.351547,600.256531 134.389999,603.454956 133.626404,607.829041 
	C132.805817,612.529663 129.689056,614.894165 125.303070,616.021545 
	C119.256882,617.575562 113.343613,617.100830 107.787918,614.388367 
	C102.051094,611.587463 96.513863,608.377808 90.634521,605.209656 
	C86.708641,611.842590 82.688629,618.634583 78.277298,626.087708 
	C83.768188,629.149292 88.589630,632.509705 93.898628,634.674377 
	C111.124237,641.697815 128.390686,642.434631 145.534836,633.963501 
	C161.389343,626.129639 168.170868,598.018616 151.557449,585.203308 
	C146.084930,580.981873 139.982895,577.521729 133.951599,574.095642 
	C128.622589,571.068542 122.790321,568.907776 117.546654,565.755127 
	C111.500473,562.119934 111.117340,557.811584 116.201721,551.578613 
z"/>
<path fill="#FFFFFE" opacity="1.000000" stroke="none" 
	d="
M282.157837,438.933960 
	C282.157959,441.706909 282.157959,443.990784 282.157959,446.573883 
	C246.021347,446.573883 210.461761,446.573883 174.157471,446.573883 
	C174.157471,440.709686 174.304413,434.941071 174.128296,429.182312 
	C173.700363,415.190277 174.124939,401.309479 179.075943,387.987274 
	C185.628769,370.354797 196.988052,357.575195 216.021942,353.568817 
	C237.432831,349.062103 258.972229,358.270966 271.130890,377.324432 
	C278.604858,389.036591 281.316071,401.959625 282.001251,415.464264 
	C282.389069,423.107452 282.127045,430.783600 282.157837,438.933960 
z"/>
<path fill="#FFFFFE" opacity="1.000000" stroke="none" 
	d="
M425.577057,548.211365 
	C428.271698,548.762390 430.579681,549.124146 432.766663,549.850220 
	C439.249969,552.002747 441.933868,555.705811 442.053467,562.336853 
	C442.179749,569.335266 439.682800,573.744507 433.145050,575.563416 
	C428.193420,576.940918 422.867859,576.974121 417.321838,577.652954 
	C417.321838,567.335327 417.321838,558.113525 417.321838,548.188538 
	C419.976898,548.188538 422.556000,548.188538 425.577057,548.211365 
z"/>
<path fill="#FFFFFE" opacity="1.000000" stroke="none" 
	d="
M840.450806,584.433960 
	C843.287964,577.163635 845.959412,570.243225 849.156799,561.960266 
	C853.481995,573.233398 857.301392,583.188416 861.323730,593.672180 
	C853.004761,593.672180 845.290833,593.672180 837.072571,593.672180 
	C838.175232,590.621399 839.230225,587.702637 840.450806,584.433960 
z"/>
<path fill="#FDFDFD" opacity="1.000000" stroke="none" 
	d="
M601.408081,614.904419 
	C589.946533,611.262939 583.745422,603.548645 581.726562,592.259705 
	C580.077576,583.038452 580.534607,574.077515 584.767517,565.505005 
	C589.863159,555.185242 598.238525,550.217224 609.604980,550.327698 
	C620.838501,550.436829 629.069153,555.655823 633.645691,565.904663 
	C638.790771,577.426453 638.839783,589.205444 633.495728,600.676453 
	C627.703064,613.110291 617.209106,617.669312 601.408081,614.904419 
z"/>
<path fill="#F6F6F6" opacity="1.000000" stroke="none" 
	d="
M722.205688,573.305054 
	C715.528381,577.806152 708.362366,577.395142 700.816895,577.167236 
	C700.816895,567.494019 700.816895,557.977356 700.816895,547.796326 
	C705.845398,548.248108 710.722046,548.167603 715.348755,549.203613 
	C727.092590,551.833374 730.618958,564.041382 722.205688,573.305054 
z"/>
<path fill="#030303" opacity="1.000000" stroke="none" 
	d="
M355.945740,536.018677 
	C387.141235,558.585388 386.100433,602.666199 362.859070,624.688049 
	C346.054443,640.610962 326.144257,644.019714 305.023529,636.592407 
	C284.246765,629.285950 272.560272,613.303345 270.020782,591.475037 
	C266.580841,561.906494 281.975891,536.804321 308.035187,528.839844 
	C324.883118,523.690674 340.901855,525.811401 355.945740,536.018677 
M344.357758,607.834167 
	C354.317902,595.128479 355.737488,576.846436 347.814117,563.321838 
	C337.740662,546.127197 312.654999,545.605896 302.015015,562.454041 
	C295.680542,572.484558 294.942200,583.421082 297.783386,594.657043 
	C303.145294,615.861572 327.605042,623.093079 344.357758,607.834167 
z"/>
<path fill="#020202" opacity="1.000000" stroke="none" 
	d="
M226.953888,572.017578 
	C229.111282,571.990906 230.774643,571.970947 232.437286,571.925476 
	C232.576492,571.921692 232.711014,571.746826 233.241333,571.376831 
	C233.241333,557.407166 233.241333,543.156372 233.241333,528.551392 
	C241.670532,528.551392 249.714264,528.551392 258.031616,528.551392 
	C258.031616,564.897949 258.031616,601.165222 258.031616,637.717773 
	C250.053711,637.717773 241.964127,637.717773 233.443237,637.717773 
	C233.443237,623.291138 233.443237,608.876099 233.443237,594.223816 
	C221.572586,594.223816 210.124969,594.223816 198.278503,594.223816 
	C198.278503,608.495422 198.278503,622.906555 198.278503,637.659119 
	C189.821136,637.659119 181.746017,637.659119 173.331085,637.659119 
	C173.331085,601.498718 173.331085,565.115662 173.331085,528.462219 
	C181.396500,528.462219 189.459442,528.462219 197.857178,528.462219 
	C197.857178,542.878479 197.857178,557.145691 197.857178,572.017517 
	C207.605011,572.017517 217.032333,572.017517 226.953888,572.017578 
z"/>
<path fill="#030303" opacity="1.000000" stroke="none" 
	d="
M115.892059,551.824036 
	C111.117340,557.811584 111.500473,562.119934 117.546654,565.755127 
	C122.790321,568.907776 128.622589,571.068542 133.951599,574.095642 
	C139.982895,577.521729 146.084930,580.981873 151.557449,585.203308 
	C168.170868,598.018616 161.389343,626.129639 145.534836,633.963501 
	C128.390686,642.434631 111.124237,641.697815 93.898628,634.674377 
	C88.589630,632.509705 83.768188,629.149292 78.277298,626.087708 
	C82.688629,618.634583 86.708641,611.842590 90.634521,605.209656 
	C96.513863,608.377808 102.051094,611.587463 107.787918,614.388367 
	C113.343613,617.100830 119.256882,617.575562 125.303070,616.021545 
	C129.689056,614.894165 132.805817,612.529663 133.626404,607.829041 
	C134.389999,603.454956 132.351547,600.256531 128.803085,598.240784 
	C123.037926,594.965881 116.948570,592.259888 111.197464,588.962463 
	C106.468895,586.251282 101.508812,583.594360 97.563683,579.930908 
	C84.879059,568.151855 84.943741,549.459167 97.315514,537.306763 
	C107.871651,526.937805 120.687393,524.514771 134.717072,527.286499 
	C142.876831,528.898499 150.855911,531.233215 157.874985,536.750244 
	C154.583420,543.249939 151.312668,549.708557 148.029831,556.191040 
	C137.591339,551.639221 127.770103,545.367065 115.892059,551.824036 
z"/>
<path fill="#FDFDFD" opacity="1.000000" stroke="none" 
	d="
M344.124084,608.108032 
	C327.605042,623.093079 303.145294,615.861572 297.783386,594.657043 
	C294.942200,583.421082 295.680542,572.484558 302.015015,562.454041 
	C312.654999,545.605896 337.740662,546.127197 347.814117,563.321838 
	C355.737488,576.846436 354.317902,595.128479 344.124084,608.108032 
z"/>
</svg>